<svg xmlns="http://www.w3.org/2000/svg" viewBox="0 0 241.77 230.27"><defs><style>.cls-1{fill:#8d76d7;}</style></defs><g id="Capa_2" data-name="Capa 2"><g id="Capa_1-2" data-name="Capa 1"><path class="cls-1" d="M241.77,115.13c0,10.35-50.42,12.59-53.45,21.92-3.14,9.68,36.22,41.11,30.36,49.16s-48-19.63-56.14-13.71,5.38,54.49-4.3,57.63c-9.33,3-27-44.11-37.36-44.11s-28,47.14-37.35,44.11c-9.68-3.14,3.75-51.77-4.3-57.63S29,194.34,23.09,186.21s33.5-39.49,30.36-49.16C50.42,127.72,0,125.48,0,115.13s50.42-12.58,53.45-21.91c3.14-9.68-36.22-41.11-30.36-49.16s48,19.63,56.14,13.71S73.85,3.28,83.53.14c9.33-3,27,44.11,37.35,44.11s28-47.14,37.36-44.11c9.68,3.14-3.76,51.77,4.3,57.63s50.22-21.84,56.14-13.71-33.5,39.48-30.36,49.16C191.35,102.55,241.77,104.79,241.77,115.13Z"/></g></g></svg>