<svg xmlns="http://www.w3.org/2000/svg" viewBox="0 0 239.77 239.77"><defs><style>.cls-1{fill:#ff6b15;}</style></defs><g id="Capa_2" data-name="Capa 2"><g id="Capa_1-2" data-name="Capa 1"><path class="cls-1" d="M0,119.88c0-6.4,48.17-8,49.37-14C50.6,99.59,6.73,79.73,9.11,74s47.51,11.16,51,6-29.41-40.41-25-44.85S74.73,63.59,80,60.09s-11.81-48.56-6-51,25.6,41.49,31.84,40.26c6-1.2,7.65-49.37,14-49.37s8,48.17,14.06,49.37C140.17,50.6,160,6.73,165.78,9.11s-11.16,47.51-6,51,40.41-29.41,44.85-25-28.48,39.62-25,44.85,48.56-11.81,51-6-41.49,25.6-40.26,31.84c1.2,6,49.37,7.65,49.37,14s-48.17,8-49.37,14.06c-1.23,6.23,42.64,26.1,40.26,31.84s-47.51-11.16-51-6,29.41,40.41,25,44.85-39.62-28.48-44.85-25,11.81,48.56,6,51-25.61-41.49-31.84-40.26c-6,1.2-7.65,49.37-14.06,49.37s-8-48.17-14-49.37C99.59,189.17,79.73,233,74,230.66s11.16-47.51,6-51-40.41,29.41-44.85,25,28.48-39.62,25-44.85-48.56,11.81-51,6,41.49-25.61,40.26-31.84C48.17,127.89,0,126.29,0,119.88Z"/></g></g></svg>