<svg xmlns="http://www.w3.org/2000/svg" viewBox="0 0 33.15 33.15"><defs><style>.cls-1{fill:#ff6b15;}</style></defs><g id="Capa_2" data-name="Capa 2"><g id="Capa_1-2" data-name="Capa 1"><path class="cls-1" d="M0,16.57c0-1.7,8-1.79,8.65-3.28S3.7,6,4.85,4.85s6.91,4.44,8.44,3.8S14.87,0,16.57,0s1.8,8,3.29,8.65,7.28-4.95,8.43-3.8-4.43,6.91-3.79,8.44,8.65,1.58,8.65,3.28-8,1.8-8.65,3.29,4.95,7.28,3.79,8.43-6.9-4.43-8.43-3.79-1.58,8.65-3.29,8.65-1.79-8-3.28-8.65S6,29.45,4.85,28.29s4.44-6.9,3.8-8.43S0,18.28,0,16.57Z"/></g></g></svg>