<svg xmlns="http://www.w3.org/2000/svg" viewBox="0 0 253.01 240.81"><defs><style>.cls-1{fill:#ff6b15;}</style></defs><g id="Capa_2" data-name="Capa 2"><g id="Capa_1-2" data-name="Capa 1"><path class="cls-1" d="M253,120.4c0,9.23-81.51,5.43-84.22,13.76-2.8,8.62,65.27,53.45,60,60.63s-69-43.68-76.23-38.4,21.62,81.55,13,84.35c-8.33,2.7-29.88-75.89-39.1-75.89s-30.77,78.59-39.09,75.89c-8.62-2.8,20.17-79.13,13-84.35S29.45,202,24.17,194.79s62.84-52,60-60.64C81.51,125.83,0,129.63,0,120.4S81.51,115,84.21,106.65C87,98,19,53.2,24.17,46s69,43.68,76.23,38.4S78.79,2.87,87.41.07C95.73-2.63,117.28,76,126.5,76S157.28-2.63,165.6.07c8.62,2.8-20.17,79.13-13,84.35S223.56,38.77,228.83,46s-62.83,52-60,60.63C171.5,115,253,111.18,253,120.4Z"/></g></g></svg>