<svg xmlns="http://www.w3.org/2000/svg" viewBox="0 0 222.4 212.73"><defs><style>.cls-1{fill:#8d76d7;}</style></defs><g id="Capa_2" data-name="Capa 2"><g id="Capa_1-2" data-name="Capa 1"><path class="cls-1" d="M222.4,106.36c0,11.24-15.43,19.91-18.73,30.05-3.41,10.51,3.87,26.57-2.5,35.32s-24,6.85-32.84,13.28-12.24,23.73-22.76,27.14c-10.14,3.29-23.13-8.58-34.37-8.58S87,215.44,76.83,212.15c-10.51-3.41-14-20.77-22.76-27.14s-26.4-4.44-32.84-13.28.91-24.81-2.5-35.32C15.44,126.27,0,117.6,0,106.36s15.44-19.9,18.73-30C22.14,65.8,14.87,49.74,21.23,41s24-6.84,32.84-13.28S66.32,4,76.83.58C87-2.72,100,9.16,111.2,9.16S135.43-2.72,145.57.58c10.52,3.41,14,20.77,22.76,27.14S194.74,32.16,201.17,41s-.91,24.81,2.5,35.33C207,86.46,222.4,95.12,222.4,106.36Z"/></g></g></svg>